<?xml version="1.0"?>
<svg xmlns:rdf="http://www.w3.org/1999/02/22-rdf-syntax-ns#" xmlns="http://www.w3.org/2000/svg" xmlns:cc="http://creativecommons.org/ns#" xmlns:xlink="http://www.w3.org/1999/xlink" xmlns:dc="http://purl.org/dc/elements/1.1/" xmlns:svg="http://www.w3.org/2000/svg" id="svg3779" viewBox="0 0 588.32 650.32" version="1.1">
  <defs id="defs3781">
    <linearGradient id="linearGradient4379">
      <stop id="stop4381" stop-color="#eee" stop-opacity=".84444" offset="0"/>
      <stop id="stop4383" stop-color="#eee" stop-opacity="0" offset="1"/>
    </linearGradient>
    <linearGradient id="linearGradient4366">
      <stop id="stop4368" stop-color="#ededed" offset="0"/>
      <stop id="stop4370" stop-color="#0169c8" offset="1"/>
    </linearGradient>
    <linearGradient id="linearGradient4346">
      <stop id="stop4348" stop-color="#888" offset="0"/>
      <stop id="stop4350" stop-color="#333" offset="1"/>
    </linearGradient>
    <linearGradient id="linearGradient4304">
      <stop id="stop4306" stop-color="#e9e9ea" offset="0"/>
      <stop id="stop4308" stop-color="#fff" offset="1"/>
    </linearGradient>
    <linearGradient id="linearGradient4310" x1="302.94" xlink:href="#linearGradient4304" gradientUnits="userSpaceOnUse" x2="302.94" y1="276.66" y2="475.36"/>
    <linearGradient id="linearGradient4344" x1="176.71" xlink:href="#linearGradient4346" gradientUnits="userSpaceOnUse" x2="263.85" y1="404.11" y2="404.11"/>
    <linearGradient id="linearGradient4352" x1="289.91" xlink:href="#linearGradient4346" gradientUnits="userSpaceOnUse" x2="433.23" y1="365.02" y2="365.02"/>
    <linearGradient id="linearGradient4360" x1="262.94" xlink:href="#linearGradient4346" gradientUnits="userSpaceOnUse" y1="412.7" gradientTransform="matrix(.89720 0 0 .94764 22.646 24.822)" x2="176.71" y2="413.56"/>
    <radialGradient id="radialGradient4372" xlink:href="#linearGradient4366" gradientUnits="userSpaceOnUse" cy="376.28" cx="228.29" gradientTransform="matrix(.083035 4.0501 -2.024 .041499 962.9 -544.67)" r="32.981"/>
    <radialGradient id="radialGradient4385" xlink:href="#linearGradient4379" gradientUnits="userSpaceOnUse" cy="343.38" cx="238.16" gradientTransform="matrix(-.83224 2.5153 -1 -.33087 764.07 -128.73)" r="30.766"/>
    <linearGradient id="linearGradient4405" x1="419.78" xlink:href="#linearGradient4346" gradientUnits="userSpaceOnUse" x2="296.82" y1="364.62" y2="365.02"/>
    <linearGradient id="linearGradient4413" x1="359.32" xlink:href="#linearGradient4366" gradientUnits="userSpaceOnUse" x2="361.57" y1="402.05" y2="323.17"/>
    <linearGradient id="linearGradient4420" x1="328" xlink:href="#linearGradient4379" gradientUnits="userSpaceOnUse" x2="420" y1="365.02" y2="365.02"/>
    <linearGradient id="linearGradient4426" x1="289.91" xlink:href="#linearGradient4346" gradientUnits="userSpaceOnUse" y1="481.06" gradientTransform="matrix(.80582 0 0 1.1429 52.009 -405.15)" x2="289.91" y2="525.85"/>
    <linearGradient id="linearGradient4428" x1="121.34" gradientUnits="userSpaceOnUse" y1="489.21" gradientTransform="matrix(.77136 0 0 1.1429 61.597 -405.96)" x2="460.68" y2="489.21">
      <stop id="stop4589" stop-color="#aaa" offset="0"/>
      <stop id="stop4593" stop-color="#ededed" offset=".48044"/>
      <stop id="stop4591" stop-color="#eee" stop-opacity="0" offset="1"/>
    </linearGradient>
    <linearGradient id="linearGradient4434" x1="289.91" xlink:href="#linearGradient4346" gradientUnits="userSpaceOnUse" x2="289.91" y1="481.06" y2="525.85"/>
    <linearGradient id="linearGradient4436" x1="127.85" gradientUnits="userSpaceOnUse" y1="493.28" gradientTransform="matrix(.96361 0 0 .85858 9.2316 68.608)" x2="468.25" y2="489.21">
      <stop id="stop4334" stop-color="#eee" offset="0"/>
      <stop id="stop4336" stop-color="#eee" stop-opacity="0" offset="1"/>
    </linearGradient>
    <linearGradient id="linearGradient4579" x1="162.87" xlink:href="#linearGradient4304" gradientUnits="userSpaceOnUse" y1="279.11" gradientTransform="matrix(1.085 0 0 1.1173 -6.6502 -47.934)" x2="164.97" y2="157.77"/>
    <linearGradient id="linearGradient4581" x1="162.87" xlink:href="#linearGradient4304" gradientUnits="userSpaceOnUse" y1="279.11" gradientTransform="matrix(1.085 0 0 1.1173 -6.6502 -48.577)" x2="164.97" y2="157.77"/>
    <linearGradient id="linearGradient4585" x1="162.87" xlink:href="#linearGradient4304" gradientUnits="userSpaceOnUse" y1="279.11" gradientTransform="matrix(1.085 0 0 1.1173 -6.6502 -49.221)" x2="164.97" y2="157.77"/>
    <linearGradient id="linearGradient4605" y2="134.15" gradientUnits="userSpaceOnUse" y1="74.705" x2="303.34" x1="303.34">
      <stop id="stop4609" stop-color="#dadadb" offset="0"/>
      <stop id="stop4611" stop-color="#fff" offset="1"/>
    </linearGradient>
  </defs>
  <g id="layer1" transform="translate(-218.44 -64.119)">
    <g id="g4642" transform="matrix(1.5281 0 0 1.5281 53.876 -43.819)">
      <rect id="rect4636" height="20.359" width="8.9578" y="130.89" x="228.02" fill="#cccccf"/>
      <rect id="rect4638" height="20.359" width="8.9578" y="130.89" x="360.75" fill="#cccccf"/>
      <rect id="rect4300" height="213.36" width="311.08" y="268.52" x="148.21" fill="#cccccf"/>
      <rect id="rect4302" height="198.7" width="298.05" y="276.66" x="153.91" fill="url(#linearGradient4310)"/>
      <rect id="rect4340" height="77.362" width="143.32" y="326.34" x="289.91" fill="url(#linearGradient4352)"/>
      <rect id="rect4342" height="155.54" width="87.135" y="326.34" x="176.71" fill="url(#linearGradient4344)"/>
      <rect id="rect4358" height="147.4" width="78.177" y="334.07" x="181.19" fill="url(#linearGradient4360)"/>
      <rect id="rect4362" height="129.48" width="65.962" y="343.03" x="187.3" fill="url(#radialGradient4372)"/>
      <path id="rect4374" opacity=".76889" fill="url(#radialGradient4385)" d="m191.72 343.03c15.35 9.74 41.03 27.3 61.53 47.72v-47.719h-61.531z"/>
      <rect id="rect4399" height="62.391" width="129.5" y="333.82" x="296.82" fill="url(#linearGradient4405)"/>
      <rect id="rect4407" height="53.178" width="116.84" y="338.43" x="303.15" fill="url(#linearGradient4413)"/>
      <path id="rect4415" d="m328 338.44c17.655 14.189 43.757 35.698 64.906 53.156h27.094v-53.156h-92z" fill="url(#linearGradient4420)"/>
      <g id="g4430" transform="translate(0 -1.1517)">
        <rect id="rect4312" height="17.101" width="372.97" y="480.25" x="119.71" fill="url(#linearGradient4434)"/>
        <rect id="rect4330" height="6.9918" width="356.26" y="485.13" x="126.15" fill="url(#linearGradient4436)"/>
      </g>
      <path id="rect4492" d="m148.53 236.61v55.188c0 9.815 7.9038 17.719 17.719 17.719h6.7188c8.0894 0 14.893-5.3672 17.031-12.75 2.1403 7.379 8.8821 12.75 16.969 12.75h6.7188c8.0866 0 14.86-5.371 17-12.75 2.1379 7.3828 8.9106 12.75 17 12.75h6.7188c7.631 0 14.09-4.7922 16.594-11.531 2.5013 6.7444 8.9589 11.531 16.594 11.531h6.7188c7.2376 0 13.431-4.3073 16.188-10.5 2.7563 6.1927 8.9499 10.5 16.188 10.5h6.7188c6.6007 0 12.326-3.5796 15.375-8.9062 3.0497 5.3248 8.7757 8.9062 15.375 8.9062h6.7188c6.0531 0 11.369-3.0183 14.562-7.625 3.1948 4.5981 8.4848 7.625 14.531 7.625h6.7188c5.3354 0 10.1-2.354 13.344-6.0625 3.2433 3.7085 8.0084 6.0625 13.344 6.0625h6.7188c9.815 0 17.719-7.9038 17.719-17.719v-55.188h-309.29z" fill="#cccccf"/>
      <g id="g4567" transform="matrix(1 0 0 .78241 0 78.293)">
        <path id="rect4486" d="m446.91 107.91v151.47c0 9.815 7.9038 17.719 17.719 17.719h7.6875c9.815 0 17.719-7.9038 17.719-17.719v-9.8125l-43.125-141.66z" fill="#d40000"/>
        <g id="g4557">
          <path id="rect4470" d="m193.28 104.94v154.44c0 9.815 7.9038 17.719 17.719 17.719h7.6562c9.815 0 17.719-7.9038 17.719-17.719v-154.44h-43.094z" fill="#d40000"/>
          <path id="rect4474" d="m150.78 104.94v154.44c0 9.815 7.9038 17.719 17.719 17.719h7.6875c9.815 0 17.719-7.9038 17.719-17.719v-154.44h-43.125z" fill="url(#linearGradient4579)"/>
          <path id="rect4476" d="m235.75 104.94v154.44c0 9.815 7.9038 17.719 17.719 17.719h7.6875c9.815 0 17.719-7.9038 17.719-17.719v-154.44h-43.125z" fill="url(#linearGradient4581)"/>
          <path id="rect4478" d="m277.62 104.94v154.44c0 9.815 7.9038 17.719 17.719 17.719h7.6562c9.815 0 17.719-7.9038 17.719-17.719v-154.44h-43.094z" fill="#d40000"/>
          <path id="rect4480" d="m320.72 104.94v154.44c0 9.815 7.9038 17.719 17.719 17.719h7.6875c9.815 0 17.719-7.9038 17.719-17.719v-154.44h-43.125z" fill="url(#linearGradient4579)"/>
          <path id="rect4482" d="m362.31 104.94v154.44c0 9.815 7.9038 17.719 17.719 17.719h7.6875c9.815 0 17.719-7.9038 17.719-17.719v-154.44h-43.125z" fill="#d40000"/>
          <path id="rect4484" d="m405.06 104.94v154.44c0 9.815 7.9038 17.719 17.719 17.719h7.6875c9.815 0 17.688-7.9038 17.688-17.719v-154.44h-43.094z" fill="url(#linearGradient4585)"/>
          <path id="rect4490" d="m149.66 104.94-41.969 136.12v18.312c0 9.815 7.9038 17.719 17.719 17.719h7.6562c9.815 0 17.719-7.9038 17.719-17.719v-154.44h-1.125z" fill="#d40000"/>
        </g>
      </g>
      <rect id="rect4422" height="19.544" width="300.54" y="143.7" x="148.47" fill="url(#linearGradient4426)"/>
      <rect id="rect4424" height="9.3068" width="285.18" y="148.47" x="155.19" fill="url(#linearGradient4428)"/>
      <rect id="rect4595" rx="11.594" ry="11.594" height="67.59" width="197.89" y="70.634" x="204.4" fill="#d40000"/>
      <rect id="rect4597" rx="11.594" ry="11.594" height="59.447" width="188.11" y="74.705" x="209.29" fill="url(#linearGradient4605)"/>
      <g id="text4613" transform="matrix(1.123 0 -.18928 .89048 8.2722 110.75)" fill="#aaa">
        <path id="path4618" d="m225.17 0.2356c-0.00002 2.8078-1.0725 5.0502-3.2173 6.7271-1.5599 1.2089-3.3538 1.8134-5.3817 1.8134-0.93596-0.0000019-1.9304-0.13649-2.9833-0.40947-2.8468-0.70196-5.4402-2.3594-7.78-4.9722-0.50697-0.58496-0.76045-1.3064-0.76045-2.1644 0-1.7939 0.87744-2.8078 2.6323-3.0418 1.4429-0.19498 2.8858 0.68247 4.3287 2.6323 0.93593 1.2869 2.2618 1.9304 3.9778 1.9304 1.7159 0.0000041 2.6908-0.66295 2.9248-1.9889 0.19497-1.2869-0.76047-2.7103-2.8663-4.2702-0.195-0.15598-1.7939-1.1504-4.7967-2.9833-3.7438-2.2618-5.6157-4.7772-5.6156-7.546-0.00001-2.4568 1.0139-4.4652 3.0418-6.0251 1.8719-1.4429 4.0752-2.1643 6.6101-2.1644 2.4568 0.000029 4.8552 0.68249 7.195 2.0474 1.0919 0.62399 1.6379 1.5794 1.6379 2.8663-0.00002 1.9109-1.014 2.8663-3.0418 2.8663-0.312 0.000021-1.2284-0.29246-2.7493-0.87745-1.4819-0.62394-2.7688-0.93592-3.8608-0.93594-1.5989 0.000023-2.3984 0.74098-2.3984 2.2229-0.00001 1.4039 1.5599 2.7493 4.6797 4.0363 5.6156 2.2619 8.4235 5.6742 8.4235 10.237"/>
        <path id="path4620" d="m256.7-9.9428c0.27296 5.8107-0.3705 11.056-1.9304 15.736-0.468 1.4819-1.4819 2.2229-3.0418 2.2229-0.93597-0.0000012-1.7549-0.31198-2.4568-0.93594-0.66298-0.62396-0.99446-1.3649-0.99444-2.2229-0.00002-0.38997 0.0585-0.87744 0.17549-1.4624 1.1309-4.2507 1.5989-8.7744 1.4039-13.571-0.078-2.8468-1.1504-4.2702-3.2173-4.2702-1.9109 0.000021-4.5822 3.3343-8.014 10.003v7.663c-0.00001 1.0139-0.31199 1.8329-0.93594 2.4568-0.62397 0.58496-1.4429 0.87745-2.4568 0.87745-0.97495 3e-7 -1.7744-0.31198-2.3984-0.93594-0.62397-0.62396-0.93595-1.4234-0.93595-2.3984v-33.928c0-1.2479 0.44847-2.3593 1.3454-3.3343 0.93594-0.9749 2.0084-1.4624 3.2173-1.4624 1.4429 0.000042 2.1644 0.81899 2.1644 2.4568v18.075c3.0028-3.7827 5.9276-5.6741 8.7745-5.6742 2.5348 0.000028 4.7382 1.1895 6.6101 3.5683 1.7159 2.1839 2.6128 4.5627 2.6908 7.1366"/>
        <path id="path4622" d="m285.65-8.7728c-0.00003 4.0948-1.0335 7.858-3.1003 11.29-2.3789 3.9778-5.4987 5.9666-9.3594 5.9666-0.70197-0.0000016-1.4234-0.077997-2.1644-0.23399-2.8078-0.58496-4.9332-2.1254-6.3761-4.6212-1.2869-2.1839-1.9304-4.8162-1.9304-7.897-0.00001-4.0947 1.0334-7.8385 3.1003-11.231 2.4178-3.9777 5.5376-5.9666 9.3594-5.9666 0.70194 0.000028 1.4234 0.07802 2.1644 0.23398 2.8078 0.58499 4.9332 2.1254 6.3761 4.6212 1.2869 2.1449 1.9304 4.7577 1.9304 7.8385m-6.6686 0.29248c-0.00002-1.1699-0.234-2.3788-0.70196-3.6268-0.58498-1.5209-1.3649-2.3788-2.3398-2.5738-1.4429-0.31196-2.8273 0.50699-4.1532 2.4568-1.053 1.5209-1.7549 3.1003-2.1059 4.7382-0.195 0.93596-0.2925 1.9109-0.29249 2.9248-0.00001 1.1699 0.23398 2.3789 0.70196 3.6268 0.58495 1.5209 1.3649 2.3789 2.3399 2.5738 0.97492 0.19499 2.0474-0.23398 3.2173-1.2869 1.4819-1.3259 2.4958-3.2953 3.0418-5.9081 0.19497-0.93593 0.29246-1.9109 0.29248-2.9248"/>
        <path id="path4624" d="m314.45-9.7088c-0.00003 4.4067-1.6769 7.897-5.0307 10.471-2.9638 2.2619-6.7661 3.5878-11.407 3.9778v11.582c-0.00001 0.97493-0.33149 1.7744-0.99444 2.3984-0.62397 0.62395-1.4234 0.93593-2.3984 0.93594-0.97495-0.000013-1.7744-0.31199-2.3984-0.93594-0.62396-0.62397-0.93594-1.4234-0.93594-2.3984v-35.332c0-0.97491 0.29248-1.7744 0.87745-2.3984 0.62395-0.66293 1.4234-0.99441 2.3984-0.99444 1.7549-0.03897 2.8468 0.74098 3.2758 2.3399 2.1058-1.6769 4.2312-2.5153 6.3761-2.5153 3.0418 0.00003 5.5571 1.4234 7.546 4.2702 1.7939 2.5739 2.6908 5.4402 2.6908 8.599m-6.6686-1.3454c-0.039-1.0919-0.38999-2.0864-1.0529-2.9833-0.66298-0.89692-1.5209-1.3454-2.5738-1.3454-1.9499 0.000022-3.9973 1.5794-6.1421 4.7382v8.599c6.7076-0.66295 9.9639-3.6658 9.7689-9.0084"/>
      </g>
      <g id="g4626" transform="matrix(1.123 0 -.18928 .89048 9.4937 111.16)" fill="#d40000">
        <path id="path4628" d="m225.17 0.2356c-0.00002 2.8078-1.0725 5.0502-3.2173 6.7271-1.5599 1.2089-3.3538 1.8134-5.3817 1.8134-0.93596-0.0000019-1.9304-0.13649-2.9833-0.40947-2.8468-0.70196-5.4402-2.3594-7.78-4.9722-0.50697-0.58496-0.76045-1.3064-0.76045-2.1644 0-1.7939 0.87744-2.8078 2.6323-3.0418 1.4429-0.19498 2.8858 0.68247 4.3287 2.6323 0.93593 1.2869 2.2618 1.9304 3.9778 1.9304 1.7159 0.0000041 2.6908-0.66295 2.9248-1.9889 0.19497-1.2869-0.76047-2.7103-2.8663-4.2702-0.195-0.15598-1.7939-1.1504-4.7967-2.9833-3.7438-2.2618-5.6157-4.7772-5.6156-7.546-0.00001-2.4568 1.0139-4.4652 3.0418-6.0251 1.8719-1.4429 4.0752-2.1643 6.6101-2.1644 2.4568 0.000029 4.8552 0.68249 7.195 2.0474 1.0919 0.62399 1.6379 1.5794 1.6379 2.8663-0.00002 1.9109-1.014 2.8663-3.0418 2.8663-0.312 0.000021-1.2284-0.29246-2.7493-0.87745-1.4819-0.62394-2.7688-0.93592-3.8608-0.93594-1.5989 0.000023-2.3984 0.74098-2.3984 2.2229-0.00001 1.4039 1.5599 2.7493 4.6797 4.0363 5.6156 2.2619 8.4235 5.6742 8.4235 10.237"/>
        <path id="path4630" d="m256.7-9.9428c0.27296 5.8107-0.3705 11.056-1.9304 15.736-0.468 1.4819-1.4819 2.2229-3.0418 2.2229-0.93597-0.0000012-1.7549-0.31198-2.4568-0.93594-0.66298-0.62396-0.99446-1.3649-0.99444-2.2229-0.00002-0.38997 0.0585-0.87744 0.17549-1.4624 1.1309-4.2507 1.5989-8.7744 1.4039-13.571-0.078-2.8468-1.1504-4.2702-3.2173-4.2702-1.9109 0.000021-4.5822 3.3343-8.014 10.003v7.663c-0.00001 1.0139-0.31199 1.8329-0.93594 2.4568-0.62397 0.58496-1.4429 0.87745-2.4568 0.87745-0.97495 3e-7 -1.7744-0.31198-2.3984-0.93594-0.62397-0.62396-0.93595-1.4234-0.93595-2.3984v-33.928c0-1.2479 0.44847-2.3593 1.3454-3.3343 0.93594-0.9749 2.0084-1.4624 3.2173-1.4624 1.4429 0.000042 2.1644 0.81899 2.1644 2.4568v18.075c3.0028-3.7827 5.9276-5.6741 8.7745-5.6742 2.5348 0.000028 4.7382 1.1895 6.6101 3.5683 1.7159 2.1839 2.6128 4.5627 2.6908 7.1366"/>
        <path id="path4632" d="m285.65-8.7728c-0.00003 4.0948-1.0335 7.858-3.1003 11.29-2.3789 3.9778-5.4987 5.9666-9.3594 5.9666-0.70197-0.0000016-1.4234-0.077997-2.1644-0.23399-2.8078-0.58496-4.9332-2.1254-6.3761-4.6212-1.2869-2.1839-1.9304-4.8162-1.9304-7.897-0.00001-4.0947 1.0334-7.8385 3.1003-11.231 2.4178-3.9777 5.5376-5.9666 9.3594-5.9666 0.70194 0.000028 1.4234 0.07802 2.1644 0.23398 2.8078 0.58499 4.9332 2.1254 6.3761 4.6212 1.2869 2.1449 1.9304 4.7577 1.9304 7.8385m-6.6686 0.29248c-0.00002-1.1699-0.234-2.3788-0.70196-3.6268-0.58498-1.5209-1.3649-2.3788-2.3398-2.5738-1.4429-0.31196-2.8273 0.50699-4.1532 2.4568-1.053 1.5209-1.7549 3.1003-2.1059 4.7382-0.195 0.93596-0.2925 1.9109-0.29249 2.9248-0.00001 1.1699 0.23398 2.3789 0.70196 3.6268 0.58495 1.5209 1.3649 2.3789 2.3399 2.5738 0.97492 0.19499 2.0474-0.23398 3.2173-1.2869 1.4819-1.3259 2.4958-3.2953 3.0418-5.9081 0.19497-0.93593 0.29246-1.9109 0.29248-2.9248"/>
        <path id="path4634" d="m314.45-9.7088c-0.00003 4.4067-1.6769 7.897-5.0307 10.471-2.9638 2.2619-6.7661 3.5878-11.407 3.9778v11.582c-0.00001 0.97493-0.33149 1.7744-0.99444 2.3984-0.62397 0.62395-1.4234 0.93593-2.3984 0.93594-0.97495-0.000013-1.7744-0.31199-2.3984-0.93594-0.62396-0.62397-0.93594-1.4234-0.93594-2.3984v-35.332c0-0.97491 0.29248-1.7744 0.87745-2.3984 0.62395-0.66293 1.4234-0.99441 2.3984-0.99444 1.7549-0.03897 2.8468 0.74098 3.2758 2.3399 2.1058-1.6769 4.2312-2.5153 6.3761-2.5153 3.0418 0.00003 5.5571 1.4234 7.546 4.2702 1.7939 2.5739 2.6908 5.4402 2.6908 8.599m-6.6686-1.3454c-0.039-1.0919-0.38999-2.0864-1.0529-2.9833-0.66298-0.89692-1.5209-1.3454-2.5738-1.3454-1.9499 0.000022-3.9973 1.5794-6.1421 4.7382v8.599c6.7076-0.66295 9.9639-3.6658 9.7689-9.0084"/>
      </g>
    </g>
    <rect id="rect4706" height="23.616" width="9.7721" y="566.23" x="425.28" fill="#666"/>
  </g>
  <metadata>
    <rdf:RDF>
      <cc:Work>
        <dc:format>image/svg+xml</dc:format>
        <dc:type rdf:resource="http://purl.org/dc/dcmitype/StillImage"/>
        <cc:license rdf:resource="http://creativecommons.org/licenses/publicdomain/"/>
        <dc:publisher>
          <cc:Agent rdf:about="http://openclipart.org/">
            <dc:title>Openclipart</dc:title>
          </cc:Agent>
        </dc:publisher>
        <dc:title>Shop front Icon</dc:title>
        <dc:date>2010-08-02T20:57:44</dc:date>
        <dc:description>Cute shop, home</dc:description>
        <dc:source>http://openclipart.org/detail/76267/shop-front-icon-by-shokunin</dc:source>
        <dc:creator>
          <cc:Agent>
            <dc:title>shokunin</dc:title>
          </cc:Agent>
        </dc:creator>
        <dc:subject>
          <rdf:Bag>
            <rdf:li>candy</rdf:li>
            <rdf:li>cart</rdf:li>
            <rdf:li>clip art</rdf:li>
            <rdf:li>clipart</rdf:li>
            <rdf:li>home</rdf:li>
            <rdf:li>house</rdf:li>
            <rdf:li>icon</rdf:li>
            <rdf:li>shop.shopping</rdf:li>
          </rdf:Bag>
        </dc:subject>
      </cc:Work>
      <cc:License rdf:about="http://creativecommons.org/licenses/publicdomain/">
        <cc:permits rdf:resource="http://creativecommons.org/ns#Reproduction"/>
        <cc:permits rdf:resource="http://creativecommons.org/ns#Distribution"/>
        <cc:permits rdf:resource="http://creativecommons.org/ns#DerivativeWorks"/>
      </cc:License>
    </rdf:RDF>
  </metadata>
</svg>
